<?xml version="1.0" standalone="no"?>
<!DOCTYPE svg PUBLIC "-//W3C//DTD SVG 20010904//EN"
 "http://www.w3.org/TR/2001/REC-SVG-20010904/DTD/svg10.dtd">
<svg version="1.0" xmlns="http://www.w3.org/2000/svg"
 width="253.000000pt" height="253.000000pt" viewBox="0 0 253.000000 253.000000"
 preserveAspectRatio="xMidYMid meet">
<metadata>
Created by potrace 1.11, written by Peter Selinger 2001-2013
</metadata>
<g transform="translate(0.000000,253.000000) scale(0.100000,-0.100000)"
fill="#000000" stroke="none">
<path d="M1170 2484 c-8 -3 -76 -35 -150 -70 -124 -59 -145 -65 -264 -84 -70
-10 -151 -27 -179 -36 -75 -25 -131 -87 -202 -224 -54 -105 -69 -125 -171
-225 -169 -167 -178 -194 -143 -417 l23 -150 -22 -136 c-26 -161 -27 -163 -6
-231 13 -46 33 -71 137 -180 105 -109 130 -140 176 -229 73 -140 110 -185 173
-216 53 -26 82 -33 258 -61 78 -13 119 -27 235 -83 137 -65 142 -67 220 -67
78 0 83 2 220 67 138 66 172 76 330 99 173 25 234 71 325 250 47 91 68 118
171 224 64 66 127 140 139 165 28 55 30 134 6 265 -20 113 -20 171 0 276 9 46
16 114 17 150 0 97 -25 141 -157 273 -98 98 -118 124 -170 221 -108 204 -137
224 -365 262 -137 22 -155 28 -286 90 -132 63 -145 67 -220 70 -44 1 -87 0
-95 -3z m355 -1041 c-7 -21 -54 -139 -104 -262 -50 -124 -91 -226 -91 -228 0
-2 -18 -3 -40 -3 -22 0 -40 2 -40 4 0 6 200 508 207 519 2 4 22 7 43 7 l39 0
-14 -37z m-765 -115 c19 -65 38 -118 41 -118 3 0 21 53 40 118 l34 117 44 3
c24 2 48 -1 53 -6 6 -6 78 -345 78 -369 0 -2 -22 -3 -48 -3 l-48 0 -19 120
c-11 65 -21 118 -22 116 -2 -2 -18 -55 -36 -117 l-32 -114 -45 0 -45 0 -30
107 c-16 59 -33 109 -36 112 -3 3 -13 -46 -23 -109 l-18 -115 -49 0 c-27 0
-49 1 -49 3 0 9 71 354 75 365 3 9 20 12 52 10 l47 -3 36 -117z m1164 108 c63
-26 85 -91 47 -137 -18 -23 -18 -23 15 -55 38 -35 44 -75 20 -123 -21 -40 -56
-51 -161 -51 l-95 0 0 190 0 190 70 0 c39 0 86 -6 104 -14z"/>
<path d="M1840 1335 c0 -46 7 -53 41 -35 37 20 15 80 -30 80 -6 0 -11 -20 -11
-45z"/>
<path d="M1840 1180 l0 -41 36 3 c43 4 65 29 48 56 -6 10 -26 18 -48 20 l-36
3 0 -41z"/>
</g>
</svg>
