<?xml version="1.0" standalone="no"?>
<!DOCTYPE svg PUBLIC "-//W3C//DTD SVG 20010904//EN"
 "http://www.w3.org/TR/2001/REC-SVG-20010904/DTD/svg10.dtd">
<svg version="1.0" xmlns="http://www.w3.org/2000/svg"
 width="144.000000pt" height="144.000000pt" viewBox="0 0 144.000000 144.000000"
 preserveAspectRatio="xMidYMid meet">
<metadata>
Created by potrace 1.11, written by Peter Selinger 2001-2013
</metadata>
<g transform="translate(0.000000,144.000000) scale(0.100000,-0.100000)"
fill="#000000" stroke="none">
<path d="M803 687 c-58 -144 -61 -160 -36 -155 11 2 34 46 70 133 28 72 52
136 53 143 0 6 -8 12 -17 12 -14 0 -31 -33 -70 -133z"/>
<path d="M395 788 c-2 -7 -9 -42 -15 -78 -6 -36 -14 -75 -17 -87 -4 -19 -1
-23 20 -23 23 0 27 5 33 48 11 76 19 79 38 13 15 -53 20 -61 41 -61 20 0 26 8
39 54 9 30 16 60 17 68 1 16 15 -33 23 -84 6 -32 11 -38 31 -38 14 0 25 3 24
8 0 4 -8 48 -18 97 -17 88 -18 90 -46 90 -27 0 -31 -5 -47 -59 -10 -33 -20
-62 -22 -64 -3 -2 -13 25 -23 59 -17 57 -22 64 -46 67 -16 2 -29 -2 -32 -10z"/>
<path d="M1020 700 l0 -100 60 0 c53 0 61 3 76 25 14 21 15 31 6 50 -7 14 -16
25 -21 25 -5 0 -5 12 2 29 17 45 -11 71 -75 71 l-48 0 0 -100z m78 42 c2 -15
-2 -22 -12 -22 -11 0 -16 9 -16 26 0 31 23 28 28 -4z m17 -87 c0 -13 -8 -21
-22 -23 -19 -3 -23 1 -23 23 0 22 4 26 23 23 14 -2 22 -10 22 -23z"/>
</g>
</svg>
